<?xml version="1.0" encoding="UTF-8"?>
<svg version="1.1" xmlns="http://www.w3.org/2000/svg" width="1110" height="1080">
<path d="M0 0 C0.58168945 0.48017578 1.16337891 0.96035156 1.76269531 1.45507812 C12.32399894 10.20766579 22.02340668 19.33660151 30.58984375 30.09375 C32.77573429 32.72957263 35.04129073 35.21238246 37.39794922 37.69213867 C42.18498508 42.73044457 46.64748111 47.88473757 50.75 53.5 C51.18046631 54.07532471 51.61093262 54.65064941 52.05444336 55.2434082 C53.77826423 57.67273657 54.94219785 59.73442256 55.578125 62.65625 C54.73345799 66.08057573 52.84341282 66.99621814 50 69 C47.18847656 70.23266602 47.18847656 70.23266602 44.140625 71.25390625 C43.02429688 71.63353516 41.90796875 72.01316406 40.7578125 72.40429688 C39.60023438 72.78650391 38.44265625 73.16871094 37.25 73.5625 C36.10789062 73.94857422 34.96578125 74.33464844 33.7890625 74.73242188 C30.52942834 75.83208006 27.2655894 76.91817554 24 78 C22.47907609 78.50754115 20.95823247 79.01532302 19.4375 79.5234375 C15.97518314 80.67688227 12.51109321 81.82493571 9.046875 82.97265625 C6.94790985 83.66925031 4.84895162 84.36586519 2.75 85.0625 C1.6878125 85.41376953 0.625625 85.76503906 -0.46875 86.12695312 C-1.49484375 86.46791016 -2.5209375 86.80886719 -3.578125 87.16015625 C-4.96112793 87.61853882 -4.96112793 87.61853882 -6.37207031 88.08618164 C-8.94948279 88.98243349 -11.46817663 89.98349985 -14 91 C-17.26370771 91.88739498 -19.75243847 92.03476225 -23 91 C-26.52210097 87.72687514 -29.17202943 83.87191811 -32 80 C-45.06415064 64.24746 -45.06415064 64.24746 -63.3671875 56.796875 C-64.19476562 56.78140625 -65.02234375 56.7659375 -65.875 56.75 C-66.69742188 56.72421875 -67.51984375 56.6984375 -68.3671875 56.671875 C-83.41580722 58.54737063 -97.83682045 80.18334942 -106.7265625 91.3203125 C-110.18132717 95.39242343 -113.97787987 99.07303093 -117.8125 102.78515625 C-120.02985293 104.80109809 -120.02985293 104.80109809 -121 107 C-121.66 107 -122.32 107 -123 107 C-123.24983643 107.5765332 -123.49967285 108.15306641 -123.75708008 108.74707031 C-125.17358032 111.31463351 -126.78921967 112.99989768 -128.88671875 115.046875 C-130.0478418 116.1915625 -130.0478418 116.1915625 -131.23242188 117.359375 C-132.04259766 118.14828125 -132.85277344 118.9371875 -133.6875 119.75 C-138.75148311 124.70255072 -143.68988829 129.66753128 -148.30444336 135.04394531 C-151.25571486 138.44863751 -154.35041728 141.71878115 -157.4375 145 C-158.42363281 146.0509082 -158.42363281 146.0509082 -159.4296875 147.12304688 C-163.32022011 151.25625627 -167.27180872 155.31006093 -171.3203125 159.2890625 C-173.08779662 161.08943005 -174.73260457 162.96013344 -176.375 164.875 C-179.11621449 168.06682509 -182.00685888 171.04302977 -185 174 C-188.58558699 177.54232199 -191.94891662 181.17555661 -195.22265625 185.00390625 C-197.23268777 187.26132626 -199.34832953 189.37735713 -201.5 191.5 C-204.24500542 194.20803565 -206.8727091 196.94169249 -209.375 199.875 C-212.70381743 203.76120081 -216.30885399 207.33840417 -219.94824219 210.92871094 C-223.21987759 214.17332664 -226.26948443 217.5359985 -229.2578125 221.0390625 C-231.2543789 223.28631885 -233.36012946 225.38894927 -235.5 227.5 C-238.16269628 230.12707492 -240.7126475 232.76729011 -243.125 235.625 C-247.31069234 240.5181333 -251.94018777 244.96779937 -256.5144043 249.49267578 C-259.77990463 252.73578458 -262.96312133 255.98295178 -265.9375 259.5 C-268.20483548 262.14522472 -270.54409641 264.65256697 -273.0625 267.0625 C-273.97708984 267.94615234 -273.97708984 267.94615234 -274.91015625 268.84765625 C-277 270 -277 270 -279.859375 269.953125 C-293.58663801 265.78713971 -305.85405277 250.16921902 -312.48754883 238.00097656 C-317.77887004 227.8486143 -319.89991871 218.41545915 -317.30859375 206.9375 C-311.80237593 190.34973084 -295.96832919 177.84513738 -283.875 165.875 C-272.59680293 154.75790758 -272.59680293 154.75790758 -262 143 C-260.10416208 140.89722869 -258.17828216 138.82301047 -256.25 136.75 C-251.72276981 131.87117388 -251.72276981 131.87117388 -247.23828125 126.953125 C-241.83370406 120.98836535 -236.27746354 115.23680556 -230.55712891 109.57421875 C-227.17739198 106.21572531 -223.95781776 102.78504971 -220.8671875 99.15625 C-214.47430053 91.77366923 -207.75415765 84.67058392 -200.79296875 77.82421875 C-198.32831941 75.31661256 -196.06252314 72.65542854 -193.7734375 69.98828125 C-191.96641844 67.96235019 -190.07294161 66.07769631 -188.125 64.1875 C-185.16569693 61.27329107 -182.52525039 58.24803943 -179.9375 55 C-175.39956628 49.34139396 -170.4911011 44.08656759 -165.49194336 38.83398438 C-161.75894332 34.90669629 -158.13159943 30.91179938 -154.58056641 26.8190918 C-152.58260274 24.51961276 -150.54451139 22.25811705 -148.5 20 C-145.75780378 16.964993 -143.04676542 13.90959131 -140.375 10.8125 C-102.10611762 -32.76184107 -44.35695579 -36.94229631 0 0 Z " fill="#000000" transform="translate(590,93)"/>
<path d="M0 0 C1.1554129 -0.00388229 1.1554129 -0.00388229 2.33416748 -0.00784302 C14.52003215 -0.04007219 26.60849226 0.14138813 38.6015625 2.546875 C40.71261479 2.95905935 42.83435981 3.31797183 44.9609375 3.640625 C77.74478986 8.91307961 105.5923634 24.63749204 125.82421875 51.26171875 C128.59193747 55.1029882 131.11402263 59.074715 133.5625 63.125 C133.92633789 63.70862305 134.29017578 64.29224609 134.66503906 64.89355469 C145.45505071 82.41367479 150.50977806 102.97038079 153.5625 123.125 C153.73604004 124.22279785 153.73604004 124.22279785 153.91308594 125.34277344 C157.85153767 150.69144349 157.85153767 150.69144349 153.5625 157.125 C149.87676679 158.64374107 145.75663385 158.28747972 141.828125 158.30200195 C141.05368042 158.30857315 140.27923584 158.31514435 139.48132324 158.32191467 C136.92504778 158.34158612 134.36883075 158.35329327 131.8125 158.36328125 C130.93855591 158.36735678 130.06461182 158.3714323 129.16418457 158.37563133 C124.54305255 158.39646057 119.92195 158.41077882 115.30078125 158.42016602 C110.52560892 158.43125545 105.75089938 158.46569317 100.97589111 158.50533772 C97.30419027 158.53145036 93.63260097 158.53985281 89.96081543 158.54344749 C88.20012264 158.54832323 86.43943515 158.55996525 84.67883301 158.57848549 C82.21780276 158.60277553 79.75798784 158.60193159 77.296875 158.5949707 C76.2057843 158.61418579 76.2057843 158.61418579 75.09265137 158.63378906 C71.65710091 158.59833417 69.87018934 158.3616959 67.11123657 156.23931885 C65.26903676 153.72436708 65.05403325 152.40146366 65.0234375 149.30859375 C65.00176514 148.38473877 64.98009277 147.46088379 64.95776367 146.5090332 C64.95107666 145.53667725 64.94438965 144.56432129 64.9375 143.5625 C64.88395842 141.56496236 64.82542732 139.56755173 64.76171875 137.5703125 C64.73255371 136.6205957 64.70338867 135.67087891 64.67333984 134.69238281 C64.04951946 120.24283403 58.96270705 108.01355043 48.5 98 C36.42324141 88.218372 23.25637886 85.78330297 8.1875 85.875 C6.92421875 85.86726563 5.6609375 85.85953125 4.359375 85.8515625 C-2.85776517 85.86656695 -9.42352481 86.48846012 -16.4375 88.125 C-18.5185174 88.43275609 -20.60167471 88.72672342 -22.6875 89 C-29.10672196 89.97034751 -35.16145817 91.6328912 -41.36621094 93.515625 C-43.66504124 94.19194283 -45.97451048 94.81716039 -48.2890625 95.4375 C-60.73864016 98.80585175 -72.60773381 102.98978919 -84.4375 108.125 C-85.15856934 108.43663086 -85.87963867 108.74826172 -86.62255859 109.06933594 C-111.11873607 119.79386117 -133.59036151 134.46435205 -154.4375 151.125 C-155.06221191 151.61967773 -155.68692383 152.11435547 -156.33056641 152.62402344 C-168.28053954 162.09887406 -179.49167514 172.13398166 -190.3125 182.875 C-190.82385498 183.38160156 -191.33520996 183.88820313 -191.86206055 184.41015625 C-194.54785747 187.10771579 -197.09817668 189.87076142 -199.5703125 192.765625 C-205.0391927 199.07899785 -211.09967834 204.84268977 -217.04003906 210.70703125 C-222.50629845 216.10961257 -227.90157832 221.50806939 -232.89453125 227.359375 C-235.43028513 230.2610478 -238.18267641 232.93337188 -240.9375 235.625 C-245.10310615 239.73843232 -249.10620065 243.90243575 -252.8984375 248.3671875 C-254.5069055 250.20427024 -256.19588868 251.91407787 -257.9375 253.625 C-261.64881805 257.29535428 -265.08042876 261.12878211 -268.4375 265.125 C-268.93072754 265.70443359 -269.42395508 266.28386719 -269.93212891 266.88085938 C-271.61512933 268.86718838 -273.27778987 270.86918575 -274.9375 272.875 C-275.49074951 273.52533203 -276.04399902 274.17566406 -276.61401367 274.84570312 C-277.12295166 275.46896484 -277.63188965 276.09222656 -278.15625 276.734375 C-278.61966797 277.29092773 -279.08308594 277.84748047 -279.56054688 278.42089844 C-280.63041649 280.11484355 -280.63041649 280.11484355 -280.21191406 282.18676758 C-279.02885694 285.14776711 -276.97235211 286.86890678 -274.6875 289.0625 C-273.82640625 289.89652344 -272.9653125 290.73054688 -272.078125 291.58984375 C-271.20671875 292.42644531 -270.3353125 293.26304687 -269.4375 294.125 C-268.591875 294.97191406 -267.74625 295.81882812 -266.875 296.69140625 C-265.35080221 298.21316142 -263.80670581 299.71553073 -262.234375 301.1875 C-261.55890625 301.826875 -260.8834375 302.46625 -260.1875 303.125 C-259.50171875 303.764375 -258.8159375 304.40375 -258.109375 305.0625 C-256.12902877 307.50554395 -255.64101885 308.99953198 -255.4375 312.125 C-257.7887162 321.342449 -265.82076234 329.00652393 -271.77392578 336.10986328 C-273.79465847 338.55763663 -275.73422686 341.06049223 -277.66699219 343.57788086 C-281.84478041 349.01436169 -286.19188281 354.24557724 -290.8125 359.3125 C-291.54448608 360.12400513 -291.54448608 360.12400513 -292.29125977 360.9519043 C-295.07250077 363.94646146 -297.61492763 366.59242067 -301.4375 368.125 C-318.99334539 364.59549583 -335.39351689 342.06496049 -346.4375 329.125 C-347.4346635 327.9724552 -348.43205179 326.82010483 -349.4296875 325.66796875 C-351.94953048 322.74052304 -354.45737041 319.80297038 -356.95947266 316.86035156 C-357.90690753 315.74796849 -358.85687933 314.63773821 -359.81005859 313.53027344 C-371.66779232 299.73722169 -371.61535626 287.6144693 -371.625 269.9375 C-371.63724609 268.74447266 -371.64949219 267.55144531 -371.66210938 266.32226562 C-371.69283583 247.69179005 -371.69283583 247.69179005 -366 241.3125 C-364.93458984 240.08080078 -364.93458984 240.08080078 -363.84765625 238.82421875 C-362.65462891 237.48810547 -362.65462891 237.48810547 -361.4375 236.125 C-360.06775264 234.52333239 -358.70887637 232.91286532 -357.35083008 231.30126953 C-356.40671377 230.18150747 -355.45992042 229.06399719 -354.51049805 227.94873047 C-351.71231911 224.66034899 -348.98548885 221.32932051 -346.3125 217.9375 C-342.94882302 213.69008712 -339.36969539 209.68853605 -335.71875 205.6875 C-333.39721179 203.07974475 -331.19219645 200.40458856 -329 197.6875 C-325.14041397 192.91503797 -321.06550009 188.39390891 -316.91015625 183.87890625 C-313.69040481 180.29292716 -310.67844824 176.55798508 -307.65234375 172.80859375 C-304.77151493 169.31806571 -301.72815597 165.99225932 -298.6796875 162.6484375 C-296.39234096 160.07417642 -294.22201729 157.43210511 -292.0625 154.75 C-288.86830372 150.796073 -285.53580543 147.02070315 -282.0625 143.3125 C-278.11129717 139.08527881 -274.46449255 134.71134771 -270.9375 130.125 C-266.60119454 124.48873311 -262.00898982 119.22103365 -257.140625 114.0390625 C-255.10530108 111.84491273 -253.13873559 109.62985951 -251.1875 107.36328125 C-240.99478524 95.66627001 -229.77703083 84.54070626 -217.4375 75.125 C-216.05701135 74.030639 -214.67825997 72.9340847 -213.30078125 71.8359375 C-177.25276953 43.23077085 -137.63666101 24.12264596 -93.375 12.0625 C-92.44623047 11.80662109 -91.51746094 11.55074219 -90.56054688 11.28710938 C-81.70695078 8.87023297 -72.91740446 6.97609652 -63.84375 5.58984375 C-61.49489875 5.36911547 -61.49489875 5.36911547 -60.4375 4.125 C-58.9762489 3.91069557 -57.50634765 3.75452614 -56.03515625 3.625 C-55.14505859 3.5425 -54.25496094 3.46 -53.33789062 3.375 C-52.40138672 3.2925 -51.46488281 3.21 -50.5 3.125 C-48.65722495 2.96199018 -46.81475425 2.79549063 -44.97265625 2.625 C-44.151604 2.5528125 -43.33055176 2.480625 -42.48461914 2.40625 C-40.37632335 2.2282915 -40.37632335 2.2282915 -38.4375 1.125 C-35.80516425 0.87296785 -33.2020562 0.69211749 -30.5625 0.5625 C-29.29200806 0.4998999 -29.29200806 0.4998999 -27.99584961 0.43603516 C-18.6666801 0.04246709 -9.33586707 0.01443113 0 0 Z " fill="#000000" transform="translate(723.4375,169.875)"/>
<path d="M0 0 C1.29927326 0.47582304 2.59876167 0.95105889 3.8984375 1.42578125 C10.70959914 3.97944664 16.99760158 6.83507049 23 11 C22.03361639 19.63510517 13.79514547 26.43811593 7.7824707 32.21850586 C6.01704334 33.982966 4.38780817 35.81008731 2.76171875 37.703125 C-0.90818967 41.92584119 -4.7131607 46.00360465 -8.5625 50.0625 C-9.97036991 51.55178295 -11.37791551 53.04137253 -12.78515625 54.53125 C-13.83920654 55.64693359 -13.83920654 55.64693359 -14.91455078 56.78515625 C-17.52581835 59.55844346 -20.11985223 62.34742757 -22.7121582 65.13842773 C-29.80495817 72.77168685 -36.90320195 80.25983686 -44.7890625 87.0859375 C-58.06885588 98.58257841 -65.52500996 106.78648965 -67.5703125 124.4765625 C-68 128 -68 128 -68.54296875 130.671875 C-69.67206696 136.42352056 -69.26405814 142.17208226 -68.0625 147.875 C-67.1819475 152.18729477 -66.87366891 156.30390241 -66.7565918 160.68554688 C-66.43035774 172.49913921 -64.32984258 183.5583821 -61.671875 195.05224609 C-61.03939173 197.8271745 -60.4494139 200.60708521 -59.875 203.39453125 C-57.62389645 214.11892307 -54.74273176 224.59861961 -51.5 235.0625 C-50.94844238 236.84563599 -50.94844238 236.84563599 -50.38574219 238.66479492 C-46.28953149 251.62797983 -41.28544645 263.94143142 -35.33618164 276.14599609 C-34.32235152 278.22975188 -33.32187563 280.31954893 -32.32226562 282.41015625 C-24.86583848 297.86959232 -15.99435399 312.36301252 -6.45043945 326.61254883 C-5.05880371 328.69302591 -3.67850717 330.78072067 -2.29882812 332.86914062 C5.46404971 344.54708164 13.90090978 355.62738076 23.0625 366.25 C23.55073242 366.82008789 24.03896484 367.39017578 24.54199219 367.97753906 C28.54820763 372.6008932 32.79715021 376.8954068 37.234375 381.109375 C39 383 39 383 39 385 C39.57435791 385.24766113 40.14871582 385.49532227 40.74047852 385.75048828 C43.34915719 387.19308336 45.07042366 388.8602822 47.15234375 390.9921875 C47.92900391 391.77980469 48.70566406 392.56742188 49.50585938 393.37890625 C50.30830078 394.20261719 51.11074219 395.02632812 51.9375 395.875 C53.527573 397.4997235 55.11995413 399.12219191 56.71484375 400.7421875 C57.41730225 401.4626123 58.11976074 402.18303711 58.84350586 402.92529297 C63.01031545 407.2874356 63.01031545 407.2874356 68.4140625 409.19140625 C72.39590401 407.35687202 74.64053647 404.29250562 77.375 400.9375 C78.53771802 399.55204775 79.70047797 398.16663069 80.86328125 396.78125 C81.41193848 396.11867188 81.9605957 395.45609375 82.52587891 394.7734375 C84.16962573 392.79593222 85.85494425 390.86008128 87.5625 388.9375 C91.27905904 384.70192024 94.93441301 380.41400686 98.59790039 376.13256836 C101.74211234 372.46029826 104.90813871 368.80928624 108.1015625 365.1796875 C110.71430878 362.17986769 113.29201117 359.15044339 115.875 356.125 C119.42445107 351.96829742 123.00672486 347.85426184 126.6875 343.8125 C130.54168285 339.56942663 134.15487731 335.16394935 137.7578125 330.70703125 C139.89483782 328.12696409 142.10735745 325.65285515 144.375 323.1875 C147.86134852 319.36997848 151.04615501 315.41067187 154.1875 311.3125 C159.81791077 303.99958765 166.06392115 297.35196535 172.42089844 290.671875 C175.2935214 287.63048321 178.07381911 284.50757304 180.859375 281.38671875 C183.21728729 278.75773261 185.60955806 276.16192229 188 273.5625 C191.24582544 270.00207917 194.35620073 266.37942726 197.375 262.625 C201.75944247 257.19108991 206.45500063 252.10173982 211.21484375 247 C213.97596347 244.03855832 216.65054651 241.01014362 219.30078125 237.94921875 C223.5746796 233.04651697 227.96919471 228.24887834 232.328125 223.421875 C240.49556349 214.36546361 248.46062714 205.14743423 256.38867188 195.88183594 C258.01281717 193.9850311 259.63890304 192.08990783 261.265625 190.1953125 C262.06286987 189.2664624 262.06286987 189.2664624 262.8762207 188.31884766 C263.88487771 187.14378984 264.89381017 185.96896838 265.90307617 184.79443359 C266.59880737 183.98353271 266.59880737 183.98353271 267.30859375 183.15625 C267.76089355 182.63417969 268.21319336 182.11210937 268.67919922 181.57421875 C269.56525514 180.51815802 270.421324 179.4362543 271.24658203 178.33203125 C274.23825668 174.39555453 276.22073447 173.1165064 281 172 C285.19032105 171.70508541 289.37112703 171.71474283 293.57046509 171.7215271 C294.85164573 171.7157347 296.13282637 171.7099423 297.45283067 171.70397437 C301.00543367 171.68818428 304.55795756 171.684744 308.11059141 171.68332577 C311.94855203 171.67962686 315.78646953 171.66446238 319.62440491 171.65071106 C327.16357694 171.62548661 334.70273524 171.61077403 342.24193944 171.59939598 C351.10101689 171.58554684 359.96005287 171.56055866 368.81910305 171.53501268 C384.72867183 171.4894499 400.63824833 171.45291847 416.54785156 171.421875 C431.79298405 171.39211132 447.03809516 171.35785667 462.28320312 171.31738281 C463.21088047 171.31492126 464.13855782 171.31245972 465.0943466 171.30992357 C468.82974021 171.29999548 472.56513375 171.29004151 476.30052719 171.28005161 C515.12947832 171.17635908 553.95846531 171.07594373 592.7875222 171.02218544 C594.43564153 171.01989809 596.08376086 171.01760698 597.73188019 171.01531219 C598.557737 171.01416333 599.3835938 171.01301447 600.23447657 171.0118308 C606.59432867 171.00269591 612.95417252 170.99061895 619.31401825 170.97785187 C627.99792908 170.96051545 636.68183697 170.9472601 645.36576056 170.93828309 C649.98464888 170.93341007 654.60351969 170.92692561 659.22239804 170.91601825 C663.53190768 170.90591556 667.84139663 170.90080546 672.15091756 170.89925382 C673.7187216 170.89787159 675.2865254 170.89480366 676.85432193 170.88975719 C688.26666645 170.85453231 699.60893615 171.30838767 711 172 C713.24609604 178.55429514 713.24609604 178.55429514 713.31884766 182.07983398 C713.33870728 182.82675003 713.35856689 183.57366608 713.37902832 184.34321594 C713.39637024 185.53264046 713.39637024 185.53264046 713.4140625 186.74609375 C713.43351929 187.58629562 713.45297607 188.4264975 713.47302246 189.29216003 C713.53318477 192.00717199 713.5796285 194.72220388 713.625 197.4375 C713.66211833 199.3006281 713.69971727 201.16374669 713.73779297 203.02685547 C713.84219181 208.35102163 713.92655431 213.6753228 714 219 C714.00966797 219.70026306 714.01933594 220.40052612 714.02929688 221.12200928 C714.07953101 224.95634664 714.11130371 228.79036502 714.125 232.625 C714.12967285 233.50341553 714.1343457 234.38183105 714.13916016 235.28686523 C714.12702506 239.95094355 713.94887588 244.42377584 713 249 C710.14193578 250.42903211 707.72590222 250.1193918 704.5293026 250.11352539 C703.51641201 250.11374417 703.51641201 250.11374417 702.48305899 250.11396736 C700.19793432 250.11326095 697.91288803 250.10538778 695.6277771 250.09765625 C693.98183284 250.09577997 692.33588799 250.094366 690.68994296 250.09337711 C687.09964793 250.09028063 683.50937635 250.084039 679.91909027 250.07545662 C674.07829583 250.06156842 668.23750529 250.05457384 662.396698 250.0486908 C656.10904908 250.04204548 649.82140245 250.03490667 643.53375697 250.02550411 C627.93839665 250.00235079 612.34308746 249.99534489 596.74771118 249.99829102 C595.62100338 249.99847343 594.49429558 249.99865585 593.33344512 249.99884379 C584.05206378 250.00037498 574.77068261 250.00254508 565.48930141 250.00474477 C557.12291319 250.00665466 548.75652515 250.0079 540.39013672 250.00830078 C539.1971203 250.0083651 538.00410387 250.00842942 536.77493544 250.00849569 C517.44549276 250.00865165 498.11618792 249.97997854 478.78678815 249.94156575 C458.95265004 249.90289839 439.11870821 249.89839217 419.28454936 249.92484093 C407.04494355 249.94001648 394.80597689 249.92797418 382.56644841 249.88120073 C374.17784873 249.85162502 365.78966742 249.8549178 357.40106814 249.88417059 C352.55925839 249.90005718 347.71860409 249.90124397 342.87689209 249.86323357 C338.44346391 249.8287394 334.01210154 249.83573026 329.57873662 249.87562943 C327.97569631 249.88274109 326.37250089 249.87465342 324.76963787 249.84977531 C316.06304737 249.56024667 316.06304737 249.56024667 308.31302381 252.97848701 C306.28869199 255.22466068 304.62603659 257.45650199 303 260 C302.23171875 260.93328125 301.4634375 261.8665625 300.671875 262.828125 C300.03765625 263.62734375 299.4034375 264.4265625 298.75 265.25 C294.83389507 270.08436402 290.68594717 274.63294947 286.43579102 279.16967773 C283.37849337 282.45168409 280.48317774 285.8007918 277.6875 289.3125 C273.23314377 294.86619461 268.39551256 300.01355463 263.4909668 305.16723633 C259.80804 309.04145864 256.23985715 312.98726364 252.73681641 317.0246582 C249.89865579 320.25259714 246.94785441 323.37252283 244 326.5 C239.84110653 330.93307036 235.72390145 335.38128472 231.76171875 339.9921875 C229.89758159 342.11672519 227.98288395 344.19066054 226.0612793 346.26318359 C222.05126999 350.58878602 218.17957876 354.94654098 214.5 359.5625 C210.549955 364.47889529 206.20849572 368.82968296 201.703125 373.234375 C198.2229045 376.79506303 195.15568396 380.6138662 192.0546875 384.50390625 C189.78228634 387.26448485 187.35462387 389.74653958 184.77905273 392.22045898 C183.01878751 393.98120734 181.39710586 395.80514702 179.77734375 397.6953125 C177.28436203 400.56632833 174.73785468 403.36170254 172.10546875 406.10546875 C171.46029297 406.77900391 170.81511719 407.45253906 170.15039062 408.14648438 C168.82655085 409.52301429 167.49831576 410.89532883 166.16601562 412.26367188 C161.60670139 417.01006709 161.60670139 417.01006709 159 423 C161.49782573 425.35648224 163.99866815 427.70974016 166.5 430.0625 C167.19609375 430.71927734 167.8921875 431.37605469 168.609375 432.05273438 C172.07316445 435.30805501 175.56280827 438.51629337 179.15234375 441.6328125 C198.21302556 458.1978432 198.21302556 458.1978432 202 467 C201.20029135 481.83269132 178.91576536 498.22035548 168.94970703 508.01367188 C163.51482324 513.37959497 158.50556082 519.01854532 153.59375 524.86328125 C152.9028125 525.67152344 152.211875 526.47976563 151.5 527.3125 C150.8090625 528.13363281 150.118125 528.95476563 149.40625 529.80078125 C142.52957054 536.08579835 134.82711236 535.53514122 125.9375 535.6875 C124.57013362 535.71911837 123.20278329 535.75143786 121.83544922 535.78442383 C118.27428311 535.864512 114.71315649 535.9223853 111.15142822 535.97070312 C109.02195985 535.99970096 106.89258488 536.03287917 104.76318359 536.06640625 C100.71714473 536.12675873 96.67140462 536.16053573 92.625 536.1875 C91.39128662 536.20063232 90.15757324 536.21376465 88.88647461 536.22729492 C79.05624342 536.23612102 71.54864617 535.93502446 63.6875 529.5625 C63.1404541 529.12365479 62.5934082 528.68480957 62.02978516 528.23266602 C57.65303623 524.67223049 53.49089938 520.88041933 49.36865234 517.03076172 C44.44160901 512.43315688 39.24474173 508.22621685 34 504 C20.53907862 493.04327476 7.28162555 481.87683798 -5.55859375 470.1953125 C-6.87054121 469.01560935 -8.18823175 467.84150163 -9.5378418 466.70507812 C-16.34769043 460.91913593 -22.61265124 454.5734227 -28.92651367 448.25878906 C-30.92411952 446.26336586 -32.92959353 444.27608944 -34.93554688 442.2890625 C-41.38692455 435.86535531 -47.53696784 429.41997932 -53.19067383 422.27490234 C-55.45357523 419.42971071 -57.87088752 416.82195272 -60.375 414.1875 C-65.81177536 408.35628251 -70.74136356 402.20074279 -75.57324219 395.86376953 C-77.03855154 393.94964023 -78.52240046 392.05090094 -80.0078125 390.15234375 C-98.06593716 366.85796979 -112.50612804 339.0482464 -122.72265625 311.42578125 C-123.67774529 308.86427333 -124.66242986 306.32793835 -125.68359375 303.79296875 C-131.37726012 289.6050928 -135.57045172 275.25273915 -139.10546875 260.390625 C-139.87695279 257.13508075 -139.87695279 257.13508075 -140.97973633 254.70239258 C-142.15218026 251.59691714 -142.68993521 248.64805288 -143.21875 245.37109375 C-143.42886719 244.08783203 -143.63898438 242.80457031 -143.85546875 241.48242188 C-144.07047597 240.13414064 -144.28531898 238.78583321 -144.5 237.4375 C-144.71431194 236.11645007 -144.92915145 234.79548562 -145.14453125 233.47460938 C-145.5662192 230.8810991 -145.98496074 228.2871079 -146.40063477 225.69262695 C-146.95235332 222.29354622 -147.53418276 218.9009498 -148.12109375 215.5078125 C-148.85338269 211.13431798 -149.32580206 206.86425506 -149.5625 202.4375 C-149.75062461 198.99366788 -149.9086835 196.27394949 -151 193 C-151.96902293 185.18677236 -152.14913166 177.35945192 -152.1328125 169.49609375 C-152.13376923 168.45155533 -152.13472595 167.40701691 -152.13571167 166.33082581 C-152.13638657 164.14185526 -152.13458096 161.95288262 -152.13037109 159.76391602 C-152.12500755 156.44217374 -152.13034258 153.12056631 -152.13671875 149.79882812 C-152.13605795 147.65624971 -152.13477675 145.51367137 -152.1328125 143.37109375 C-152.13483673 142.39369736 -152.13686096 141.41630096 -152.13894653 140.4092865 C-152.08485757 124.25457272 -152.08485757 124.25457272 -150 118 C-149.82643274 116.05102784 -149.65615502 114.1016704 -149.50756836 112.15063477 C-146.68564328 77.42223764 -132.21407989 47.31654596 -106.38476562 24.00341797 C-96.57684928 15.76388464 -84.78055462 9.8764458 -73 5 C-72.28972656 4.69707031 -71.57945312 4.39414063 -70.84765625 4.08203125 C-63.84263058 1.25996569 -56.29467079 -0.63969356 -48.8125 -1.625 C-46.10075495 -1.69676169 -46.10075495 -1.69676169 -45 -3 C-30.01526112 -5.4163326 -14.24343905 -5.52400679 0 0 Z " fill="#000000" transform="translate(328,177)"/>
<path d="M0 0 C3.0181251 3.4222615 3.95006353 6.73830718 5.0625 11.125 C5.38347656 12.36507813 5.70445312 13.60515625 6.03515625 14.8828125 C6.96867105 18.73385706 7.73218599 22.6126001 8.49731445 26.5 C11.94126496 43.62775775 16.20608971 62.53706188 24.08911133 78.15820312 C25.69229958 81.39981453 25.51415425 83.40092028 25 87 C20.04051101 96.82853138 12.53093425 105.32381878 5.0625 113.3125 C-2.73726235 121.79941297 -11.65904966 131.68554894 -11.2421875 143.8671875 C-9.69666219 157.47778132 1.13150687 166.42913879 10.33984375 175.5703125 C11.43205275 176.66132568 12.52388824 177.75271288 13.6153717 178.8444519 C15.89080561 181.11833215 18.16952418 183.38884779 20.45092773 185.65673828 C23.35514013 188.54395269 26.2527175 191.43771481 29.14806271 194.33381844 C31.39816632 196.58364838 33.65088008 198.83084962 35.90445137 201.07720566 C36.97300012 202.1426035 38.04097177 203.2085805 39.10832024 204.27518082 C45.80106013 210.98755988 45.80106013 210.98755988 52.83862305 217.33203125 C58.55485626 222.23592625 63.77688241 227.66734243 69.08166122 233.00649643 C71.0883321 235.02604806 73.09821322 237.04235613 75.10891724 239.05789185 C79.36711154 243.32744299 83.62132917 247.60094282 87.875 251.875 C92.82706963 256.85067538 97.78075828 261.82471659 102.73865128 266.79459 C104.72054819 268.78297733 106.69941666 270.77434562 108.67819214 272.76583862 C109.88541209 273.97668872 111.09277133 275.18739998 112.30029297 276.39794922 C113.12624718 277.23165291 113.12624718 277.23165291 113.96888733 278.0821991 C116.71938599 280.89077593 116.71938599 280.89077593 120 283 C120 283.66 120 284.32 120 285 C120.58665562 285.26231006 121.17331123 285.52462011 121.77774429 285.79487896 C124.11784263 287.06390562 125.67023316 288.41085222 127.55609131 290.28193665 C128.24313644 290.95900665 128.93018158 291.63607666 129.63804626 292.33366394 C130.38107498 293.07602798 131.1241037 293.81839203 131.88964844 294.58325195 C132.68027176 295.36555176 133.47089508 296.14785156 134.28547668 296.95385742 C136.89893107 299.54320219 139.50464927 302.14015789 142.109375 304.73828125 C143.91962008 306.53956306 145.72994421 308.34076541 147.54034424 310.14189148 C151.33353181 313.91858547 155.12231443 317.69963734 158.90869141 321.4831543 C163.28562305 325.85644614 167.67552612 330.21641678 172.07150054 334.57055885 C176.30154344 338.76175309 180.51777863 342.96664958 184.72901154 347.17674828 C186.52233611 348.96585704 188.31979686 350.75082957 190.1213913 352.53161049 C192.63550661 355.01897288 195.13344918 357.52153308 197.62792969 360.02856445 C198.75461815 361.13300148 198.75461815 361.13300148 199.90406799 362.25975037 C200.57983383 362.94527985 201.25559967 363.63080933 201.95184326 364.33711243 C202.54396984 364.92722768 203.13609642 365.51734293 203.74616623 366.12534046 C205.38468884 368.57516444 205.338899 370.10777832 205 373 C195.57258452 387.19126905 177.31573227 400.48421369 161 405 C144.81247741 406.96684059 132.71533375 402.6919748 119.9387207 392.84960938 C113.94140298 388.08109108 108.29444626 382.9895597 102.76611328 377.68945312 C100.08506797 375.12478163 97.37908499 372.58680655 94.67553711 370.04589844 C93.29065551 368.74354092 91.90719548 367.43966889 90.52563477 366.13378906 C86.98930058 362.79355714 83.43125245 359.48226692 79.83224773 356.20952129 C71.83443558 348.90684859 64.171389 341.28950493 56.53592491 333.61108971 C54.20381164 331.26598916 51.86839272 328.92422324 49.53218079 326.58320618 C44.58109807 321.62081334 39.6340049 316.65445544 34.6875 311.6875 C28.93083882 305.90713107 23.17249621 300.12845719 17.40992165 294.35398293 C15.12135498 292.05898739 12.83584521 289.76097816 10.55046082 287.46281433 C9.13754961 286.04626831 7.72449652 284.62986378 6.3112793 283.21362305 C5.37517822 282.26977249 5.37517822 282.26977249 4.42016602 281.30685425 C0.67570853 277.56195537 -3.1895233 274.01204381 -7.20186138 270.55535603 C-10.84066687 267.40785784 -14.34151795 264.10838016 -17.875 260.84375 C-20.13023182 258.77207852 -22.42880462 256.75911676 -24.74682617 254.75805664 C-28.6917303 251.30979345 -32.45855876 247.71833675 -36.17578125 244.02734375 C-36.82645065 243.38237442 -37.47712006 242.73740509 -38.14750671 242.07289124 C-39.5143468 240.71542505 -40.87979512 239.35655615 -42.24389648 237.99633789 C-44.29025474 235.95964024 -46.34706582 233.93390951 -48.40429688 231.90820312 C-63.18505384 217.2466638 -76.12835179 201.51324289 -84 182 C-84.28488281 181.30003906 -84.56976563 180.60007812 -84.86328125 179.87890625 C-89.28525278 167.88289118 -90.50730155 155.19575008 -90.39111328 142.51782227 C-90.37497092 140.43374545 -90.39111518 138.35159868 -90.41015625 136.26757812 C-90.43211624 123.42918535 -88.34703678 111.27651797 -83.6875 99.25 C-83.38046143 98.44344971 -83.07342285 97.63689941 -82.75708008 96.8059082 C-76.42778525 80.54343214 -66.4117818 67.06349996 -54.44726562 54.52392578 C-51.89363256 51.83502942 -49.38750627 49.10226061 -46.875 46.375 C-46.36565918 45.82416748 -45.85631836 45.27333496 -45.33154297 44.70581055 C-42.44216553 41.57884133 -39.58330847 38.42804562 -36.75 35.25 C-11.12982721 6.73647437 -11.12982721 6.73647437 0 0 Z " fill="#000000" transform="translate(164,408)"/>
<path d="M0 0 C1.07252014 -0.00960754 2.14504028 -0.01921509 3.25006104 -0.02911377 C4.412453 -0.03336365 5.57484497 -0.03761353 6.77246094 -0.04199219 C7.97561951 -0.04769226 9.17877808 -0.05339233 10.418396 -0.05926514 C12.97390869 -0.06872464 15.52943363 -0.07525288 18.08496094 -0.07910156 C21.94977008 -0.08872509 25.81402853 -0.11970568 29.67871094 -0.15136719 C63.85623543 -0.29986574 63.85623543 -0.29986574 73.75683594 9.16113281 C74.71332031 10.01578125 75.66980469 10.87042969 76.65527344 11.75097656 C83.34512338 17.74227541 89.95087942 23.83072481 95.77246094 30.68066406 C100.02186796 35.55391902 104.58372967 40.10179437 109.1723938 44.65185547 C110.7315732 46.19806021 112.28742215 47.74755177 113.8425293 49.29785156 C117.1444673 52.58846264 120.4503401 55.87510243 123.75683594 59.16113281 C127.59395069 62.97449786 131.42935268 66.7895543 135.26052856 70.60888672 C136.77993059 72.12189333 138.30235297 73.63181251 139.82495117 75.14160156 C165.15367434 100.33497283 184.69024004 130.01514889 200.13183594 162.09863281 C200.51243164 162.88939209 200.89302734 163.68015137 201.28515625 164.49487305 C207.36111566 177.4109219 211.99296837 190.55641374 216.00683594 204.22363281 C216.65776569 206.41543535 217.3106588 208.60664444 217.96405029 210.79771423 C218.54824464 212.76043323 219.12779436 214.72453296 219.70703125 216.6887207 C220.38838563 218.94241916 221.09975133 221.18734228 221.84594727 223.42041016 C237.15505985 269.48315417 235.26131699 327.72054642 213.75683594 371.16113281 C199.76429755 397.13440686 176.12832585 412.81782545 148.56933594 421.54394531 C141.26963102 423.59698732 134.00593091 424.85756992 126.48730469 425.76660156 C123.79924977 426.00879771 123.79924977 426.00879771 121.75683594 427.16113281 C114.77894486 427.67403763 108.4794324 426.93607577 101.75683594 425.16113281 C100.36851562 424.85175781 100.36851562 424.85175781 98.95214844 424.53613281 C88.06150941 422.04684389 71.97504168 417.37933855 63.75683594 409.16113281 C63.25588543 406.22699415 63.2654179 404.06542257 64.70996094 401.40722656 C71.7129418 391.76806612 80.54581031 383.22587561 89.05371094 374.92675781 C91.08783999 372.84559687 92.98158086 370.76145413 94.87011719 368.55566406 C99.23964474 363.5146316 103.94793211 358.8198704 108.67211914 354.11547852 C110.19175262 352.60120701 111.70596111 351.08165851 113.21972656 349.56152344 C118.5592417 344.21819164 123.98961857 339.04545103 129.75683594 334.16113281 C143.16370259 323.66545565 143.16370259 323.66545565 149.92431641 308.97363281 C149.99085824 306.3243394 149.98253016 303.6859731 149.94433594 301.03613281 C149.93499023 300.0897998 149.92564453 299.1434668 149.91601562 298.16845703 C149.77297631 287.5193634 148.70218912 278.17920042 145.78027344 267.89550781 C144.88167658 264.61665821 144.17143709 261.36776974 143.50683594 258.03613281 C136.2613977 226.2496941 118.23797016 199.95674667 98.65380859 174.6328125 C96.37704168 171.66627605 94.1478819 168.6667075 91.92407227 165.66040039 C86.95582146 158.94781074 81.78064322 152.48881418 76.32714844 146.16503906 C73.97336259 143.41418599 71.70269208 140.61532805 69.44433594 137.78613281 C64.09337087 131.20990204 58.24947379 125.10990225 52.43212891 118.94970703 C50.9416547 117.35844879 49.47021498 115.7534413 48.01074219 114.13378906 C36.7573628 101.64716262 25.11881647 89.40986278 11.75683594 79.16113281 C10.08812485 77.83035903 8.42090879 76.49770196 6.75683594 75.16113281 C2.65997435 76.7420394 0.16226137 79.70453191 -2.68066406 82.91113281 C-3.14537109 83.42417969 -3.61007812 83.93722656 -4.08886719 84.46582031 C-6.44522689 87.08180682 -8.73253499 89.74012317 -10.96582031 92.46191406 C-14.21108579 96.3083608 -14.21108579 96.3083608 -17.24316406 97.16113281 C-21.59626713 96.74259143 -23.67530314 95.28466355 -26.82519531 92.32128906 C-28.129646 91.09949951 -28.129646 91.09949951 -29.46044922 89.85302734 C-33.82185324 85.63396779 -38.1581305 81.39485584 -42.43969727 77.0949707 C-43.93621332 75.59306357 -45.43804706 74.09662219 -46.94042969 72.60058594 C-65.023105 54.5322398 -65.023105 54.5322398 -67.24316406 48.16113281 C-67.04037148 42.78405675 -65.81408621 39.93132831 -62.30566406 35.91113281 C-61.49484375 34.97140625 -60.68402344 34.03167969 -59.84863281 33.06347656 C-58.98882813 32.10570312 -58.12902344 31.14792969 -57.24316406 30.16113281 C-56.39367187 29.21367188 -55.54417969 28.26621094 -54.66894531 27.29003906 C-52.98547359 25.43125942 -51.29419765 23.57951446 -49.59472656 21.73535156 C-47.51211212 19.45554605 -45.49514477 17.1364758 -43.49316406 14.78613281 C-35.9757541 6.19731629 -28.73563073 2.92232416 -17.49316406 2.03613281 C-15.81061849 1.89060156 -14.12831115 1.74228202 -12.44628906 1.59082031 C-11.34269043 1.5016333 -11.34269043 1.5016333 -10.21679688 1.41064453 C-6.63461138 0.95777546 -3.68796041 0.02670551 0 0 Z " fill="#000000" transform="translate(638.2431640625,487.8388671875)"/>
<path d="M0 0 C4.58823401 0.0285732 9.17647535 0.05570053 13.76472014 0.08247924 C23.43859815 0.13909591 33.11241031 0.20213738 42.78619957 0.27230072 C46.06899507 0.29602779 49.35179415 0.31769421 52.63461494 0.33760834 C56.44828472 0.36096086 60.2618881 0.38911369 64.07549441 0.42116475 C65.46887899 0.43210771 66.86227784 0.44137849 68.25568521 0.44887805 C70.14624518 0.45934969 72.03676491 0.47647057 73.9272728 0.49398041 C74.98365385 0.50173178 76.0400349 0.50948315 77.12842751 0.51746941 C79.61187363 0.65892792 79.61187363 0.65892792 81.61187363 1.65892792 C82.56310725 4.5126288 82.73838022 6.281019 82.74126816 9.24022675 C82.74442032 10.17002853 82.74757248 11.09983032 82.75082016 12.05780792 C82.74778381 13.57159279 82.74778381 13.57159279 82.74468613 15.11595917 C82.74564285 16.16933975 82.74659958 17.22272034 82.7475853 18.30802155 C82.74826716 20.55169992 82.74641244 22.79538026 82.74224472 25.03905487 C82.73699759 28.39221195 82.74213589 31.74522872 82.74859238 35.09838104 C82.7531483 45.79480034 82.6409466 56.48146155 82.22906113 67.17064667 C82.18351593 68.56776634 82.18351593 68.56776634 82.13705063 69.99311066 C82.07987366 71.26954689 82.07987366 71.26954689 82.0215416 72.57176971 C81.99091629 73.31629898 81.96029099 74.06082825 81.92873764 74.82791901 C81.61187363 76.65892792 81.61187363 76.65892792 79.61187363 78.65892792 C76.68631935 78.91340351 76.68631935 78.91340351 72.85744858 78.91962433 C71.80367026 78.92536265 71.80367026 78.92536265 70.72860348 78.9312169 C68.36263284 78.94157714 65.99690351 78.93754901 63.6309166 78.93358612 C61.93918761 78.93793113 60.2474606 78.94311357 58.55573654 78.94907379 C53.95007076 78.96250297 49.34448685 78.96303775 44.73880529 78.96051049 C40.89464947 78.95944266 37.05051034 78.96431972 33.20635808 78.96911591 C24.13318397 78.98022628 15.06005125 78.98064101 5.98687363 78.97460175 C-3.36864094 78.96857006 -12.7240048 78.98084896 -22.07949364 79.00217181 C-30.11102479 79.01980315 -38.14250806 79.02578645 -46.17405784 79.02253407 C-50.97092077 79.0207223 -55.76767639 79.02334609 -60.56452179 79.03724861 C-65.08056098 79.04984594 -69.59636626 79.04786482 -74.11240196 79.03483772 C-75.76675305 79.03247592 -77.42112069 79.03519242 -79.0754528 79.04346085 C-96.66289288 79.12499661 -96.66289288 79.12499661 -103.66975784 73.98529816 C-104.27041565 73.3765535 -104.87107346 72.76780884 -105.48993301 72.14061737 C-106.18748199 71.44591843 -106.88503098 70.75121948 -107.6037178 70.03546906 C-108.32792419 69.28859329 -109.05213058 68.54171753 -109.79828262 67.77220917 C-110.95498711 66.60845009 -110.95498711 66.60845009 -112.13505936 65.42118073 C-114.5855551 62.94944037 -117.01787177 60.46061799 -119.45062637 57.97142792 C-121.08819301 56.3173382 -122.72685508 54.66433221 -124.366642 53.01244354 C-130.69987302 46.60840626 -136.96536061 40.21412917 -142.85704422 33.39847565 C-144.68013823 31.32715698 -146.60115206 29.40432414 -148.61468887 27.51830292 C-149.33656387 26.84025604 -150.05843887 26.16220917 -150.80218887 25.46361542 C-151.89660294 24.4465451 -151.89660294 24.4465451 -153.01312637 23.40892792 C-153.75047012 22.71541229 -154.48781387 22.02189667 -155.24750137 21.30736542 C-158.18866667 18.55595272 -161.11520341 15.87696963 -164.26312637 13.36205292 C-167.05665001 11.12312589 -168.68812867 8.79738522 -170.38812637 5.65892792 C-170.26312637 3.34642792 -170.26312637 3.34642792 -169.38812637 1.65892792 C-166.70842314 0.3190763 -164.60944333 0.48938394 -161.60614395 0.43773651 C-159.72447777 0.40305267 -159.72447777 0.40305267 -157.80479813 0.36766815 C-156.3807573 0.34714592 -154.95671007 0.32706436 -153.53265762 0.30736542 C-151.99772973 0.28355497 -150.46280238 0.25970936 -148.92787552 0.23583221 C-143.68557973 0.15786701 -138.44313612 0.0954925 -133.20062637 0.03392792 C-131.84071705 0.0171336 -131.84071705 0.0171336 -130.45333481 0 C-86.96886784 -0.53438803 -43.48535676 -0.27122308 0 0 Z " fill="#000000" transform="translate(957.388126373291,489.34107208251953)"/>
<path d="M0 0 C14.65170801 4.69295309 29.37136844 24.71417777 39.07348633 36.08349609 C43.48589363 41.14543124 48.41642847 45.57560733 53.49609375 49.94921875 C56.50627466 52.64607228 59.31551814 55.52582735 62.12890625 58.42578125 C64.11391473 60.36053635 66.12347989 62.16744948 68.22265625 63.97265625 C73.39202314 68.46273076 78.24364293 73.25587454 83.09765625 78.08203125 C83.99613281 78.95988281 84.89460938 79.83773437 85.8203125 80.7421875 C98.48824263 93.33635967 106.67590034 104.93541893 106.73779297 123.07202148 C106.7155993 126.38567956 106.68554506 129.69884921 106.63476562 133.01220703 C106.60911938 134.96098414 106.59556963 136.90994451 106.59179688 138.85888672 C106.51843906 162.33705483 106.51843906 162.33705483 99.59765625 171.83203125 C98.8603125 172.85683594 98.12296875 173.88164063 97.36328125 174.9375 C95.29746461 177.72614295 93.14648644 180.43700385 90.96386719 183.13476562 C89.56701913 184.87009224 88.19286827 186.62127213 86.82421875 188.37890625 C74.85292353 203.75199559 62.4210065 218.70914004 49.1953125 233.01953125 C42.60070132 240.15103186 42.60070132 240.15103186 36.21264648 247.46655273 C31.04735752 253.51435338 25.45842097 259.12318834 19.82788086 264.73217773 C18.16339348 266.39130445 16.50432178 268.05571176 14.84570312 269.72070312 C9.27005034 275.30015837 3.6391954 280.75306324 -2.40234375 285.83203125 C-3.34078125 286.64027344 -4.27921875 287.44851563 -5.24609375 288.28125 C-44.02108924 320.9548859 -91.87743924 348.76123971 -142.12939453 358.35205078 C-144.97446528 358.9528466 -147.6597624 359.87270801 -150.40234375 360.83203125 C-152.50006083 361.35843453 -154.6046854 361.85795416 -156.71484375 362.33203125 C-157.85050781 362.58726562 -158.98617187 362.8425 -160.15625 363.10546875 C-161.22746094 363.34523438 -162.29867187 363.585 -163.40234375 363.83203125 C-164.23636719 364.03054688 -165.07039062 364.2290625 -165.9296875 364.43359375 C-185.28481441 368.99174315 -207.55474348 369.67954546 -227.40234375 368.83203125 C-229.04275635 368.77039795 -229.04275635 368.77039795 -230.71630859 368.70751953 C-247.73608377 368.01576656 -263.9245854 366.37796993 -280.40234375 361.83203125 C-281.87586701 361.45662149 -283.34981073 361.08285725 -284.82421875 360.7109375 C-312.71466542 353.39278189 -341.53790318 337.21756197 -357.75390625 312.65625 C-360.96929873 307.14741407 -363.77676718 301.44545446 -366.51513672 295.6875 C-367.27329394 294.10192078 -368.05605751 292.52814689 -368.84375 290.95703125 C-384.51812112 258.72384174 -381.20884552 218.15977758 -375.40234375 183.83203125 C-374.41234375 183.50203125 -373.42234375 183.17203125 -372.40234375 182.83203125 C-366.20533263 186.59646785 -361.15069055 191.89222605 -356.58203125 197.4609375 C-354.72470191 199.48136565 -352.87133721 201.18540949 -350.78955078 202.96069336 C-346.33610513 206.8336166 -342.17514596 210.94899455 -338.02734375 215.14453125 C-337.2585791 215.91708252 -336.48981445 216.68963379 -335.69775391 217.4855957 C-332.44374545 220.75579161 -329.19578109 224.03196615 -325.94726562 227.30761719 C-323.55939023 229.7136841 -321.16843582 232.11666163 -318.77734375 234.51953125 C-318.05627441 235.24889893 -317.33520508 235.9782666 -316.59228516 236.72973633 C-312.55691599 240.7843037 -308.42489647 244.65166175 -304.07839966 248.37176514 C-302.0200969 250.16506436 -300.14738091 252.09462774 -298.27734375 254.08203125 C-283.02800797 269.48939124 -265.13697621 281.06083301 -243.00390625 281.83984375 C-218.05003687 281.78571388 -194.73893361 274.83225316 -171.34912109 266.83154297 C-168.68168117 265.92677917 -166.0074893 265.04833985 -163.328125 264.1796875 C-128.21742398 252.62296278 -95.60467387 233.30412868 -66.96240234 210.07275391 C-64.41282716 208.04506359 -61.77833187 206.13408717 -59.15234375 204.20703125 C-54.51723195 200.75535225 -50.189506 197.09248993 -45.94921875 193.16796875 C-43.90695181 191.29484662 -41.83603043 189.48438422 -39.734375 187.6796875 C-34.71831889 183.30280618 -30.03478449 178.61070005 -25.33984375 173.89453125 C-24.48068359 173.03923828 -23.62152344 172.18394531 -22.73632812 171.30273438 C-17.75024421 166.3090323 -12.95508784 161.22367669 -8.40234375 155.83203125 C-7.8808374 155.217229 -7.35933105 154.60242676 -6.82202148 153.96899414 C-0.60136117 146.57058403 5.40207627 139.00090722 11.03515625 131.14453125 C11.5259668 130.48582031 12.01677734 129.82710937 12.52246094 129.1484375 C14.03600094 127.07423031 14.03600094 127.07423031 15.59765625 123.83203125 C11.60475828 108.72137891 -7.89229134 95.14394539 -18.78479004 84.37054443 C-22.89669114 80.3023801 -27.00135944 76.22694516 -31.10296822 72.14840698 C-32.52299783 70.73849513 -33.94663249 69.33221713 -35.37034607 67.92602539 C-36.23547318 67.0674292 -37.10060028 66.20883301 -37.99194336 65.32421875 C-38.74930283 64.5751123 -39.50666229 63.82600586 -40.28697205 63.05419922 C-46.38926534 56.64382667 -46.38926534 56.64382667 -46.45703125 52.4375 C-45.23394118 48.25634395 -43.28509905 45.41977618 -40.52734375 42.14453125 C-40.0370166 41.5414917 -39.54668945 40.93845215 -39.04150391 40.31713867 C-35.31700211 35.78841554 -31.39906491 31.44618352 -27.39355469 27.16577148 C-23.59644546 23.100639 -20.09711735 18.84250609 -16.60546875 14.515625 C-4.43418656 -0.31003256 -4.43418656 -0.31003256 0 0 Z " fill="#000000" transform="translate(557.40234375,545.16796875)"/>
<path d="M0 0 C1.20054016 -0.00419449 2.40108032 -0.00838898 3.63800049 -0.01271057 C4.95778397 -0.00709106 6.27756744 -0.00147156 7.63734436 0.00431824 C9.04061471 0.00324517 10.44388463 0.00130613 11.84715271 -0.00143433 C15.66902462 -0.0062931 19.49078018 0.00139468 23.31263804 0.01151872 C27.3367707 0.02032572 31.36089996 0.01854097 35.38504028 0.01815796 C42.17017036 0.01909619 48.9552559 0.02778598 55.7403717 0.04142761 C63.51120613 0.05699657 71.28199126 0.06243121 79.05284017 0.06169206 C87.3896911 0.06100687 95.72652374 0.068019 104.06336904 0.07713866 C106.42705245 0.07923853 108.79073278 0.07997558 111.15441704 0.08037758 C126.47972534 0.08545641 141.79088099 0.17260688 157.10853577 0.69523621 C158.26857841 0.73382405 159.42862104 0.7724119 160.62381649 0.81216908 C161.69063436 0.85327651 162.75745222 0.89438395 163.8565979 0.93673706 C164.78206201 0.9723257 165.70752611 1.00791433 166.66103458 1.04458141 C169.30292143 1.25162353 171.69980659 1.50350413 174.2469635 2.24723816 C178.86225767 9.17017941 177.39241776 19.25041467 177.379776 27.26676941 C177.38045076 28.61578387 177.38142222 29.96479821 177.38267517 31.31381226 C177.38414151 34.12521027 177.38203032 36.93657631 177.37733459 39.74797058 C177.37161033 43.35037405 177.37493998 46.95270344 177.38090706 50.55510426 C177.38451806 53.33374593 177.38337207 56.11236999 177.38077927 58.89101219 C177.37978956 60.86471988 177.38282186 62.83842826 177.38591003 64.81213379 C177.38118179 66.6049604 177.38118179 66.6049604 177.37635803 68.43400574 C177.37556244 69.48687271 177.37476685 70.53973969 177.37394714 71.62451172 C177.2469635 74.24723816 177.2469635 74.24723816 176.2469635 77.24723816 C173.00779713 78.55340011 169.64620242 78.3755879 166.19439697 78.38095093 C164.95371964 78.38521591 163.7130423 78.3894809 162.43476868 78.39387512 C161.06251523 78.39352562 159.6902618 78.39306409 158.31800842 78.39250183 C156.87066562 78.39549452 155.42332362 78.39889731 153.97598267 78.40267944 C150.04611852 78.41151327 146.11627615 78.41385732 142.18640304 78.41449523 C139.72996211 78.41520618 137.27352672 78.41734136 134.81708717 78.41999245 C126.24382297 78.42924438 117.67057432 78.43332759 109.0973053 78.43254089 C101.11186547 78.43194039 93.12649326 78.44248713 85.14107054 78.45828456 C78.2806368 78.47137169 71.42022512 78.47672428 64.55977899 78.47608548 C60.46443163 78.47583081 56.36914434 78.47866518 52.27380943 78.48926353 C48.4201544 78.49896406 44.56661662 78.49901033 40.71295738 78.4917469 C39.30167977 78.49070343 37.89039479 78.49304982 36.47912979 78.49910736 C22.56579698 78.55494026 22.56579698 78.55494026 17.2469635 76.24723816 C15.43691197 73.47892405 14.37771114 71.30444473 13.2469635 68.24723816 C12.69975647 66.77577332 12.69975647 66.77577332 12.14149475 65.27458191 C11.06667086 62.30055463 10.02244208 59.31718397 8.98280334 56.33073425 C7.61361656 52.45394593 6.17584439 48.60233187 4.7469635 44.74723816 C2.26098634 38.02782153 -0.17218676 31.29348625 -2.55381775 24.53630066 C-4.19422411 20.03720569 -6.0013408 15.60825178 -7.83506775 11.18473816 C-8.83569053 7.98274527 -9.14587871 5.57929743 -8.7530365 2.24723816 C-5.30841683 -0.04917495 -4.05435499 -0.00211378 0 0 Z " fill="#000000" transform="translate(864.7530364990234,636.7527618408203)"/>
<path d="M0 0 C14.72952217 10.09606321 26.66965596 26.75201951 31 44 C33.61493047 58.03989514 30.39169871 70.84216072 23 83 C20.51984663 86.51093441 17.83242787 89.76885742 15 93 C14.26394531 93.845625 13.52789063 94.69125 12.76953125 95.5625 C8.57152709 100.3024152 4.21514019 104.82955286 -0.30078125 109.265625 C-2.13016054 111.06797811 -2.13016054 111.06797811 -4 113.5625 C-5.74624475 115.69073579 -7.39337881 117.25242251 -9.48071289 119.01855469 C-14.64976706 123.50021801 -19.469808 128.3077255 -24.30859375 133.140625 C-25.28444177 134.11324828 -26.26035976 135.08580136 -27.23634338 136.05828857 C-29.27106584 138.08706364 -31.30375257 140.1178533 -33.33520508 142.14990234 C-35.9094861 144.72428474 -38.49057227 147.29172337 -41.07350063 149.85742569 C-43.08899588 151.8616785 -45.09980422 153.87058599 -47.10942268 155.88072968 C-48.51141088 157.28099995 -49.91791441 158.67674483 -51.3245697 160.07232666 C-56.56649622 165.33269653 -61.41244042 170.75935775 -66.03746033 176.57106018 C-68.8958434 180.10874177 -71.98712279 183.39885795 -75.125 186.6875 C-76.34458475 187.98098428 -77.56334623 189.27524534 -78.78125 190.5703125 C-79.34585938 191.17004883 -79.91046875 191.76978516 -80.4921875 192.38769531 C-83.88806358 196.01890736 -87.12006901 199.78313917 -90.33496094 203.57421875 C-101.34768401 216.55733795 -101.34768401 216.55733795 -106.31211853 221.31092834 C-108.04826822 223.04830226 -109.640282 224.85806832 -111.23657227 226.72436523 C-114.80382446 230.82613419 -118.55357209 234.69858182 -122.40234375 238.53515625 C-123.08373917 239.21750839 -123.76513458 239.89986053 -124.46717834 240.60289001 C-125.89705741 242.03344437 -127.32817911 243.46275767 -128.76049805 244.89086914 C-130.93197711 247.05699074 -133.09806325 249.22840174 -135.26367188 251.40039062 C-136.66374202 252.79979987 -138.06412238 254.19889884 -139.46484375 255.59765625 C-140.10155502 256.23639175 -140.7382663 256.87512726 -141.39427185 257.53321838 C-154.07283681 270.14705934 -168.49139262 283.06539884 -186 288 C-186.8137207 288.25160889 -187.62744141 288.50321777 -188.46582031 288.76245117 C-197.44804952 291.32365228 -206.10489915 291.64071347 -215.375 291.625 C-216.16758209 291.62546326 -216.96016418 291.62592651 -217.77676392 291.62640381 C-251.76966291 291.49029353 -277.17051267 273.76479948 -300.515625 250.4921875 C-307.66273927 242.95313471 -313.5523461 234.55323372 -319.52832031 226.07958984 C-321.49248054 223.30408937 -323.493356 220.55743755 -325.5 217.8125 C-326.41265625 216.55373047 -326.41265625 216.55373047 -327.34375 215.26953125 C-328.41590734 213.80037226 -329.49862254 212.33883629 -330.59375 210.88671875 C-334 206.31666667 -334 206.31666667 -334 203 C-328.94763753 200.66915912 -324.11542498 199.17315789 -318.6875 198 C-317.17662057 197.65697988 -315.66619874 197.31193777 -314.15625 196.96484375 C-313.43695313 196.79968262 -312.71765625 196.63452148 -311.9765625 196.46435547 C-301.77933645 194.06871269 -292.36230319 189.97210706 -282.84765625 185.67578125 C-281.46670776 185.06210693 -281.46670776 185.06210693 -280.05786133 184.43603516 C-278.22003522 183.61883294 -276.38753805 182.78951293 -274.5612793 181.94677734 C-269.08680837 179.52495299 -264.99647159 178.27729821 -259 179 C-256.85546875 180.109375 -256.85546875 180.109375 -255.1875 181.75 C-254.52621094 182.38679687 -253.86492187 183.02359375 -253.18359375 183.6796875 C-251.12791215 185.86407904 -249.12394167 188.08850452 -247.12988281 190.32910156 C-238.79022956 199.67211013 -228.36183466 210.31762228 -215.15283203 211.1875 C-202.80294184 210.4530478 -191.76293667 195.23085261 -183.75 187.0625 C-182.2222319 185.52321688 -180.69359183 183.98479869 -179.1640625 182.44726562 C-177.68672132 180.95650044 -176.21013276 179.46498894 -174.734375 177.97265625 C-174.0613031 177.29219742 -173.3882312 176.61173859 -172.69476318 175.91065979 C-168.87491506 172.01475961 -165.23568407 168.01117229 -161.66656494 163.88523865 C-159.18329027 161.07612796 -156.54685523 158.44093442 -153.875 155.8125 C-153.32440918 155.2656958 -152.77381836 154.7188916 -152.20654297 154.15551758 C-149.8922054 151.85725636 -147.5718335 149.56512484 -145.25195312 147.27246094 C-136.62464668 138.73779182 -136.62464668 138.73779182 -128.50292969 129.72558594 C-126.02332417 126.87863145 -123.32714618 124.25873742 -120.625 121.625 C-116.85973773 118.16330978 -116.85973773 118.16330978 -114 114 C-113.34 114 -112.68 114 -112 114 C-111.73517822 113.41299316 -111.47035645 112.82598633 -111.19750977 112.22119141 C-109.95987425 109.92557308 -108.63894023 108.34043619 -106.83984375 106.4609375 C-106.21529297 105.80279053 -105.59074219 105.14464355 -104.94726562 104.46655273 C-104.28404297 103.77634033 -103.62082031 103.08612793 -102.9375 102.375 C-101.570815 100.9369574 -100.20492705 99.49815688 -98.83984375 98.05859375 C-98.17839355 97.36233887 -97.51694336 96.66608398 -96.83544922 95.94873047 C-94.51237668 93.48228128 -92.25123987 90.96965715 -90 88.4375 C-86.99687388 85.06882482 -83.88769715 81.86341073 -80.671875 78.69921875 C-78.29323471 76.28167546 -76.0904784 73.72674841 -73.875 71.16015625 C-70.3102508 67.05326811 -66.6432707 63.0371378 -63 59 C-62.3841655 58.30363937 -61.76833099 57.60727875 -61.13383484 56.88981628 C-55.57736513 50.64044933 -49.79536871 44.67695578 -43.85546875 38.79296875 C-42.43115026 37.37443583 -41.00683458 35.95590008 -39.58268452 34.53719807 C-37.1197917 32.08511566 -34.65353885 29.63641777 -32.1875 27.1875 C-29.22022166 24.24068897 -26.25359333 21.29324233 -23.29084778 18.34187317 C-21.45570467 16.51422284 -19.61830812 14.68883162 -17.77836609 12.86601257 C-16.9468251 12.03777481 -16.11528412 11.20953705 -15.25854492 10.35620117 C-14.53068283 9.6335759 -13.80282074 8.91095062 -13.05290222 8.16642761 C-10.91248079 5.97248428 -10.91248079 5.97248428 -8.85884094 3.29023743 C-6.12961753 -0.07237928 -4.24391978 -0.48395576 0 0 Z " fill="#000000" transform="translate(741,723)"/>
</svg>
